<svg width="262" height="213" viewBox="0 0 262 213" fill="none" xmlns="http://www.w3.org/2000/svg">
<g clip-path="url(#clip0_61:54)">
<path d="M262 213C248.5 210.766 235.517 208.84 223.051 207.222L227.98 198.208C226.318 197.653 219.016 202.792 219.016 202.792L225.487 176.586C217.129 177.495 212.876 204.266 212.876 204.266L203.54 195.159L208.059 205.366C169.905 200.916 136.954 199.168 109.237 198.966L113.457 191.251C111.795 190.696 104.493 195.835 104.493 195.835L110.964 169.629C102.606 170.539 98.353 197.309 98.353 197.309L89.0162 188.202L93.803 199.013C70.5676 199.332 51.6192 200.733 36.9938 202.367C41.2618 190.336 55.7566 178.949 55.7566 178.949C44.6877 182.005 38.881 187.194 35.8466 192.043C35.6146 177.16 37.175 149.577 48.768 119.091C48.768 119.091 25.8838 166.07 28.7989 197.7L29.1474 203.315C9.75153 205.841 0 208.524 0 208.524L262 213Z" fill="#3F3D56"/>
<path d="M139.315 8.53132V198.37C139.313 200.631 138.516 202.799 137.101 204.398C135.685 205.996 133.766 206.895 131.765 206.895H63.5623C62.5708 206.897 61.5887 206.678 60.6722 206.251C59.7558 205.823 58.9231 205.195 58.2217 204.403C57.5204 203.611 56.9642 202.671 56.5851 201.635C56.206 200.6 56.0114 199.49 56.0125 198.37V8.53132C56.0124 7.41094 56.2076 6.30152 56.587 5.26641C56.9664 4.2313 57.5225 3.29077 58.2236 2.49855C58.9246 1.70632 59.757 1.07791 60.673 0.64921C61.589 0.220506 62.5708 -9.65346e-05 63.5623 4.00258e-07H73.7687V1.47899C73.7685 3.34196 74.4231 5.12873 75.5886 6.44632C76.7542 7.76391 78.3351 8.50441 79.9837 8.50496H114.672C115.999 8.50816 117.292 8.02747 118.358 7.13432C118.573 6.9572 118.777 6.76345 118.969 6.55444C119.576 5.8993 120.059 5.11161 120.389 4.23915C120.719 3.3667 120.888 2.42766 120.887 1.47899V4.00258e-07H131.765C132.756 -0.000342853 133.738 0.220092 134.654 0.64871C135.57 1.07733 136.403 1.70572 137.104 2.498C137.805 3.29027 138.361 4.23089 138.74 5.26612C139.12 6.30134 139.315 7.41087 139.315 8.53132Z" fill="#3F3D56"/>
<path d="M75.0127 33.6801C76.0147 33.6801 76.827 32.7623 76.827 31.63C76.827 30.4978 76.0147 29.5799 75.0127 29.5799C74.0107 29.5799 73.1985 30.4978 73.1985 31.63C73.1985 32.7623 74.0107 33.6801 75.0127 33.6801Z" fill="#F2F2F2"/>
<path d="M118.969 6.55447C118.777 6.76348 118.573 6.95724 118.357 7.13436C120.579 11.5528 123.59 15.4014 127.197 18.4359C130.805 21.4704 134.931 23.6247 139.315 24.7622V23.8485C135.05 22.7116 131.04 20.5878 127.538 17.6111C124.036 14.6345 121.118 10.8697 118.969 6.55447Z" fill="#0FB9B1"/>
<path d="M103.468 8.50494H102.618C105.636 17.1698 110.613 24.7879 117.053 30.598C123.492 36.408 131.169 40.2066 139.315 41.6139V40.706C131.381 39.3138 123.904 35.6129 117.619 29.9672C111.334 24.3215 106.457 16.9251 103.468 8.50494Z" fill="#0FB9B1"/>
<path d="M87.8083 8.50494H86.9893C93.8393 35.3729 114.509 55.373 139.315 58.6209V57.7277C114.939 54.4944 94.6246 34.875 87.8083 8.50494Z" fill="#0FB9B1"/>
<path d="M69.0515 46.8071H68.5793V46.2735H68.4873V46.8071H68.0148V46.9114H68.4873V47.445H68.5793V46.9114H69.0515V46.8071Z" fill="#F2F2F2"/>
<path d="M100.93 20.1559H100.458V19.6223H100.366V20.1559H99.8936V20.2602H100.366V20.7938H100.458V20.2602H100.93V20.1559Z" fill="#F2F2F2"/>
<path d="M73.7167 67.8938H73.2445V67.3602H73.1525V67.8938H72.68V67.9981H73.1525V68.5317H73.2445V67.9981H73.7167V67.8938Z" fill="#F2F2F2"/>
<path d="M95.4876 52.3717H95.0154V51.8381H94.9233V52.3717H94.4509V52.4759H94.9233V53.0096H95.0154V52.4759H95.4876V52.3717Z" fill="#F2F2F2"/>
<path d="M126.589 62.0364H126.117V61.5028H126.025V62.0364H125.552V62.1407H126.025V62.6743H126.117V62.1407H126.589V62.0364Z" fill="#F2F2F2"/>
<path d="M121.146 37.7803C121.719 37.7803 122.183 37.2558 122.183 36.6088C122.183 35.9618 121.719 35.4373 121.146 35.4373C120.574 35.4373 120.11 35.9618 120.11 36.6088C120.11 37.2558 120.574 37.7803 121.146 37.7803Z" fill="#FF6584"/>
<path d="M84.0062 64.08L83.4178 64.1826C83.6019 65.5122 83.747 66.8711 83.8533 68.2154L84.4468 68.1568C84.3405 66.795 84.1928 65.4243 84.0062 64.08Z" fill="#E6E6E6"/>
<path d="M82.3967 56.073L81.8265 56.2692C82.1712 57.5578 82.4796 58.8787 82.7414 60.1937L83.3245 60.0443C83.0576 58.7147 82.744 57.3792 82.3967 56.073Z" fill="#E6E6E6"/>
<path d="M79.8283 48.3939L79.2866 48.675C79.7842 49.9022 80.2507 51.1615 80.6732 52.4209L81.2304 52.1836C80.8028 50.9096 80.3337 49.6327 79.8283 48.3939Z" fill="#E6E6E6"/>
<path d="M76.3553 41.1951L75.8524 41.5554C76.4926 42.6917 77.1069 43.869 77.6771 45.0493L78.2006 44.7272C77.6252 43.5323 77.0032 42.3432 76.3553 41.1951Z" fill="#E6E6E6"/>
<path d="M72.0374 34.5968L71.5838 35.0332C72.3561 36.0582 73.1078 37.1301 73.8179 38.2138L74.2948 37.8125C73.5794 36.7172 72.8201 35.6335 72.0374 34.5968Z" fill="#E6E6E6"/>
<path d="M66.9627 28.7218L66.5661 29.2226C67.4577 30.1217 68.3311 31.0677 69.1631 32.0312L69.5907 31.5597C68.7484 30.5844 67.8646 29.6297 66.9627 28.7218Z" fill="#E6E6E6"/>
<path d="M61.2297 23.6786L60.8953 24.235C61.8854 24.9877 62.8651 25.7902 63.8059 26.619L64.1739 26.0889C63.2202 25.2513 62.2301 24.44 61.2297 23.6786Z" fill="#E6E6E6"/>
<path d="M56.0125 20.1758V20.9373C56.6319 21.3034 57.2461 21.6871 57.8474 22.0795L58.1455 21.4967C57.4457 21.0398 56.7347 20.5995 56.0125 20.1758Z" fill="#E6E6E6"/>
<path d="M83.8715 127.341C83.9681 126.686 84.0566 126.017 84.1345 125.354L84.7252 125.442C84.6464 126.113 84.557 126.789 84.4593 127.452L83.8715 127.341Z" fill="#E6E6E6"/>
<path d="M82.2104 135.242L82.7799 135.443C83.1372 134.141 83.4606 132.808 83.7408 131.48L83.1604 131.325C82.8828 132.639 82.5651 133.955 82.2104 135.242Z" fill="#E6E6E6"/>
<path d="M79.6079 142.808L80.1486 143.094C80.6628 141.862 81.144 140.592 81.5805 139.321L81.0243 139.076C80.593 140.333 80.1169 141.589 79.6079 142.808Z" fill="#E6E6E6"/>
<path d="M76.106 149.905L76.6058 150.272C77.2649 149.13 77.8973 147.946 78.4859 146.754L77.9662 146.425C77.3852 147.603 76.758 148.773 76.106 149.905Z" fill="#E6E6E6"/>
<path d="M71.7734 156.389L72.2251 156.831C73.018 155.798 73.7867 154.723 74.5153 153.636L74.038 153.232C73.3197 154.307 72.5587 155.369 71.7734 156.389Z" fill="#E6E6E6"/>
<path d="M66.7001 162.142L67.0925 162.648C68.0039 161.75 68.895 160.802 69.7466 159.839L69.3251 159.362C68.4832 160.315 67.5997 161.25 66.7001 162.142Z" fill="#E6E6E6"/>
<path d="M60.9845 167.06L61.3137 167.623C62.32 166.872 63.3194 166.072 64.2782 165.247L63.9178 164.71C62.9682 165.527 61.9811 166.318 60.9845 167.06Z" fill="#E6E6E6"/>
<path d="M58.2129 169.762C57.4923 170.222 56.7563 170.667 56.0125 171.089V170.333C56.6552 169.964 57.2928 169.575 57.9174 169.18L58.2129 169.762Z" fill="#E6E6E6"/>
<path d="M84.0463 72.37L84.6421 72.3577C84.653 73.0375 84.6538 73.7209 84.6445 74.3891L84.0488 74.3786C84.0579 73.718 84.0571 73.0422 84.0463 72.37Z" fill="#E6E6E6"/>
<path d="M58.6301 88.3391H119.591C124.128 88.3391 128.479 90.3755 131.687 94.0005C134.895 97.6255 136.697 102.542 136.697 107.668V110.227H75.7358C71.1991 110.227 66.8482 108.191 63.6403 104.566C60.4323 100.941 58.6301 96.0242 58.6301 90.8977V88.3391Z" fill="white"/>
<path d="M99.0876 206.626C99.0281 206.517 97.6257 203.87 97.1395 198.376C96.6935 193.335 96.9803 184.837 100.88 172.984C108.268 150.53 99.1775 132.412 99.0846 132.232L99.5331 131.938C99.5566 131.983 101.902 136.603 103.288 143.958C105.119 153.71 104.452 163.85 101.366 173.189C93.9906 195.605 99.4738 206.217 99.53 206.321L99.0876 206.626Z" fill="#F2F2F2"/>
<path d="M96.1987 130.913C98.0595 130.913 99.568 129.208 99.568 127.106C99.568 125.003 98.0595 123.298 96.1987 123.298C94.3379 123.298 92.8294 125.003 92.8294 127.106C92.8294 129.208 94.3379 130.913 96.1987 130.913Z" fill="#0FB9B1"/>
<path d="M106.825 144.971C108.686 144.971 110.194 143.266 110.194 141.164C110.194 139.061 108.686 137.356 106.825 137.356C104.964 137.356 103.456 139.061 103.456 141.164C103.456 143.266 104.964 144.971 106.825 144.971Z" fill="#F2F2F2"/>
<path d="M99.568 154.343C101.429 154.343 102.937 152.638 102.937 150.535C102.937 148.433 101.429 146.728 99.568 146.728C97.7072 146.728 96.1987 148.433 96.1987 150.535C96.1987 152.638 97.7072 154.343 99.568 154.343Z" fill="#0FB9B1"/>
<path d="M108.38 162.25C110.241 162.25 111.749 160.546 111.749 158.443C111.749 156.34 110.241 154.636 108.38 154.636C106.519 154.636 105.011 156.34 105.011 158.443C105.011 160.546 106.519 162.25 108.38 162.25Z" fill="#0FB9B1"/>
<path d="M96.9762 174.551C98.8371 174.551 100.346 172.846 100.346 170.743C100.346 168.641 98.8371 166.936 96.9762 166.936C95.1154 166.936 93.6069 168.641 93.6069 170.743C93.6069 172.846 95.1154 174.551 96.9762 174.551Z" fill="#F2F2F2"/>
<path d="M101.123 206.767C101.123 206.767 97.7538 197.395 107.862 190.366L101.123 206.767Z" fill="#F2F2F2"/>
<path d="M96.9793 206.596C96.9793 206.596 95.4459 196.63 83.5777 196.716L96.9793 206.596Z" fill="#F2F2F2"/>
<path opacity="0.2" d="M83.5656 122.713C95.0167 122.713 104.3 112.223 104.3 99.2831C104.3 86.3433 95.0167 75.8535 83.5656 75.8535C72.1144 75.8535 62.8314 86.3433 62.8314 99.2831C62.8314 112.223 72.1144 122.713 83.5656 122.713Z" fill="#0FB9B1"/>
<path opacity="0.2" d="M83.5656 115.783C91.6298 115.783 98.1671 108.396 98.1671 99.2831C98.1671 90.1705 91.6298 82.7833 83.5656 82.7833C75.5014 82.7833 68.9641 90.1705 68.9641 99.2831C68.9641 108.396 75.5014 115.783 83.5656 115.783Z" fill="#0FB9B1"/>
<path d="M83.5656 110.173C88.8879 110.173 93.2026 105.297 93.2026 99.2831C93.2026 93.2688 88.8879 88.3932 83.5656 88.3932C78.2432 88.3932 73.9286 93.2688 73.9286 99.2831C73.9286 105.297 78.2432 110.173 83.5656 110.173Z" fill="#0FB9B1"/>
<path d="M85.3177 96.9343C85.3178 96.6001 85.2431 96.2714 85.1004 95.9787C84.9578 95.686 84.7519 95.4388 84.502 95.2603C84.2521 95.0817 83.9662 94.9775 83.671 94.9574C83.3758 94.9372 83.081 95.0019 82.8139 95.1452C82.5468 95.2886 82.3161 95.506 82.1434 95.7772C81.9706 96.0484 81.8615 96.3646 81.826 96.6963C81.7905 97.0281 81.83 97.3646 81.9406 97.6744C82.0512 97.9843 82.2294 98.2575 82.4587 98.4686L81.8134 103.573H85.3177L84.6724 98.4686C84.8742 98.2832 85.0368 98.0493 85.1485 97.7838C85.2601 97.5184 85.3179 97.2282 85.3177 96.9343Z" fill="white"/>
<path d="M180.415 15.61C180.415 15.61 174.635 9.7541 166.862 20.7902C159.088 31.8264 146.93 37.2318 144.14 41.5111C144.14 41.5111 155.7 36.1057 159.686 33.8534C163.673 31.6011 163.473 32.0516 163.473 32.0516C163.473 32.0516 158.092 36.3309 157.095 40.6102C156.099 44.8895 156.896 48.4932 155.102 52.7725C153.308 57.0518 189.384 55.7004 189.384 55.7004C189.384 55.7004 192.972 48.7184 191.975 41.5111C190.979 34.3039 191.577 16.5109 180.415 15.61Z" fill="#2F2E41"/>
<path d="M169.482 34.0322C169.482 34.0322 170.739 43.9742 165.353 46.206C159.966 48.4379 161.941 51.4814 161.941 51.4814L170.021 55.9451L178.64 52.9017L181.513 48.0321C181.513 48.0321 176.844 46.8147 178.101 43.1626C179.358 39.5104 179.717 38.293 179.717 38.293L169.482 34.0322Z" fill="#FFB9B9"/>
<path opacity="0.1" d="M169.482 34.0322C169.482 34.0322 170.739 43.9742 165.353 46.206C159.966 48.4379 161.941 51.4814 161.941 51.4814L170.021 55.9451L178.64 52.9017L181.513 48.0321C181.513 48.0321 176.844 46.8147 178.101 43.1626C179.358 39.5104 179.717 38.293 179.717 38.293L169.482 34.0322Z" fill="black"/>
<path d="M192.106 62.4379C192.106 62.4379 190.849 81.1045 191.209 81.9161C191.568 82.7277 191.209 110.931 191.209 110.931C191.209 110.931 193.722 126.148 190.49 126.959C187.258 127.771 187.977 109.916 187.977 109.916L184.745 86.3799L185.104 63.0466L192.106 62.4379Z" fill="#FFB9B9"/>
<path opacity="0.1" d="M192.106 62.4379C192.106 62.4379 190.849 81.1045 191.209 81.9161C191.568 82.7277 191.209 110.931 191.209 110.931C191.209 110.931 193.722 126.148 190.49 126.959C187.258 127.771 187.977 109.916 187.977 109.916L184.745 86.3799L185.104 63.0466L192.106 62.4379Z" fill="black"/>
<path d="M157.093 118.641C157.093 118.641 151.168 144.003 151.347 156.38C151.527 168.756 153.861 186.003 153.861 186.003C153.861 186.003 154.22 193.51 153.681 194.322C153.143 195.133 156.375 198.582 156.375 198.582L159.786 196.351L161.043 194.727V193.307C161.043 193.307 159.068 186.409 160.684 180.93C162.3 175.452 163.198 161.655 161.582 157.394L172.714 120.061L157.093 118.641Z" fill="#FFB9B9"/>
<path d="M156.734 195.336C156.734 195.336 154.579 192.293 153.143 193.307C151.706 194.322 149.372 201.22 149.372 201.22C149.372 201.22 141.292 209.945 147.038 210.351C152.784 210.756 155.297 208.524 156.016 206.901C156.734 205.278 163.377 201.017 163.377 201.017C163.377 201.017 162.659 193.307 161.582 193.104C160.505 192.901 158.889 196.148 158.889 196.148L156.734 195.336Z" fill="#2F2E41"/>
<path d="M176.665 120.264V145.423C176.685 148.476 176.865 151.525 177.203 154.554C177.742 159.017 174.151 192.293 174.151 192.293L174.51 198.177L178.999 197.771L179.537 192.698L186.001 170.38C186.001 170.38 188.156 156.785 187.079 151.713C186.001 146.641 192.645 114.177 192.645 114.177L176.665 120.264Z" fill="#FFB9B9"/>
<path d="M173.073 196.756L174.403 196.43C174.403 196.43 175.408 193.916 176.665 194.524C177.549 194.985 178.387 195.553 179.164 196.217L179.717 197.365C179.717 197.365 180.974 200.409 182.59 202.437C184.206 204.466 186.001 208.93 183.308 209.336C180.615 209.742 177.024 209.945 175.946 208.93C174.869 207.916 175.587 206.293 174.51 205.887C173.433 205.481 172.535 204.264 172.714 203.858C172.894 203.452 173.073 196.756 173.073 196.756Z" fill="#2F2E41"/>
<path d="M176.665 41.0207C181.072 41.0207 184.645 36.9834 184.645 32.0032C184.645 27.0229 181.072 22.9857 176.665 22.9857C172.257 22.9857 168.684 27.0229 168.684 32.0032C168.684 36.9834 172.257 41.0207 176.665 41.0207Z" fill="#FFB9B9"/>
<path d="M161.582 47.8292L163.954 46.8936C163.954 46.8936 163.018 48.6408 168.046 49.6553C173.073 50.6698 178.28 51.029 180.615 47.7045C180.615 47.7045 181.513 47.2205 182.769 48.6408C184.026 50.0611 184.745 49.6553 184.745 49.6553L183.847 54.9307L182.051 64.6698L179.717 71.9741L173.073 70.3509L165.891 64.4669L163.198 56.5538V49.2495L161.582 47.8292Z" fill="#0FB9B1"/>
<path d="M183.488 50.6698L185.283 49.2495C185.283 49.2495 191.388 50.4669 191.747 53.7133L187.079 63.8582C188.031 66.681 187.966 69.813 186.899 72.5828C185.104 77.2494 185.283 78.2639 185.283 78.2639L184.026 84.3508L161.223 86.3798C161.223 86.3798 160.325 83.945 159.966 83.5392C159.607 83.1334 159.607 81.7132 159.966 81.7132C160.325 81.7132 159.966 81.1045 159.607 80.4958C159.248 79.8871 159.068 79.6842 159.607 78.8726C160.145 78.061 158.709 70.7567 158.709 70.7567V62.8437L152.604 53.7133C152.604 53.7133 154.759 50.0611 155.836 49.6553C156.913 49.2495 162.038 47.6492 162.038 47.6492L163.198 49.5786L164.814 64.2639L167.148 73.1914L176.976 71.3044L180.794 64.061L183.308 55.5393L183.488 50.6698Z" fill="#0FB9B1"/>
<path d="M190.311 52.4959L191.747 53.7133C191.747 53.7133 193.004 65.0755 192.645 65.8871C192.286 66.6987 186.001 67.5103 185.822 67.1045C185.642 66.6987 190.311 52.4959 190.311 52.4959Z" fill="#0FB9B1"/>
<path d="M160.684 46.8147L162.48 60.206C162.48 60.206 160.864 80.09 161.223 84.148L161.582 85.3654C161.582 85.3654 160.864 84.9596 160.684 85.7712C160.504 86.5827 160.684 89.2204 160.684 89.2204C160.684 89.2204 159.607 90.4378 159.248 97.1334C158.889 103.829 154.579 119.858 156.195 120.467C157.811 121.075 167.507 124.119 172.714 123.51C177.921 122.901 196.595 115.8 196.416 113.974C196.236 112.148 187.258 86.3799 187.258 86.3799C187.258 86.3799 185.642 83.3364 185.642 82.9306C185.642 82.5248 187.797 80.9016 187.258 79.2784C186.72 77.6552 183.847 60.6118 183.847 60.6118L185.822 48.4379L183.129 47.6263L181.153 59.3944C181.153 59.3944 173.433 63.6553 165.353 59.8002L163.557 46.0031L160.684 46.8147Z" fill="#2F2E41"/>
<path d="M169.323 25.5316C169.323 25.5316 182.61 35.8794 186.201 31.2127C189.792 26.546 179.917 22.4881 179.917 22.4881L171.657 21.4736L169.323 25.5316Z" fill="#2F2E41"/>
<path d="M148.678 135.611C150.046 136.762 151.738 137.309 153.437 137.151C155.136 136.992 156.726 136.139 157.908 134.751C159.09 133.363 159.784 131.535 159.859 129.61C159.934 127.686 159.385 125.796 158.316 124.296C157.246 122.795 155.729 121.788 154.049 121.461C152.368 121.134 150.64 121.511 149.189 122.521C147.737 123.531 146.661 125.105 146.162 126.947C145.664 128.79 145.777 130.774 146.481 132.529L128.155 149.771L125.715 146.499L124.619 147.327L123.399 145.691L124.401 144.737L123.181 143.1L121.622 144.585L122.373 145.592L120.702 147.183L119.951 146.176L117.501 148.509L118.627 150.019L119.518 149.171L120.738 150.807L119.624 151.867L121.877 154.888L119.203 157.433L121.925 161.083L148.678 135.611ZM153.254 124.045C154.167 124.133 155.037 124.526 155.753 125.172C156.469 125.819 156.999 126.691 157.276 127.678C157.554 128.665 157.566 129.723 157.311 130.718C157.057 131.713 156.546 132.601 155.845 133.268C155.144 133.935 154.284 134.353 153.373 134.468C152.462 134.583 151.542 134.39 150.728 133.913C149.914 133.437 149.243 132.698 148.801 131.791C148.358 130.884 148.164 129.849 148.242 128.817C148.346 127.433 148.933 126.153 149.873 125.258C150.813 124.363 152.029 123.927 153.254 124.045V124.045Z" fill="#0FB9B1"/>
<path d="M151.347 64.8727C151.347 64.8727 152.604 83.5393 152.245 84.3509C151.886 85.1624 152.245 113.365 152.245 113.365C152.245 113.365 149.731 128.583 152.963 129.394C156.195 130.206 155.477 112.351 155.477 112.351L158.709 88.8146L158.35 65.4813L151.347 64.8727Z" fill="#FFB9B9"/>
<path d="M154.041 53.1046L152.604 53.7132C152.604 53.7132 149.911 66.4958 150.629 66.4958C151.347 66.4958 159.966 67.7132 159.966 67.3074C159.966 66.9016 158.35 56.9596 158.35 56.9596L154.041 53.1046Z" fill="#0FB9B1"/>
</g>
<defs>
<clipPath id="clip0_61:54">
<rect width="262" height="213" fill="white"/>
</clipPath>
</defs>
</svg>
